<svg version="1.2" baseProfile="tiny-ps" xmlns="http://www.w3.org/2000/svg" viewBox="0 0 71 72" width="71" height="72">
	<title>ELEMENTS</title>
	<style>
		tspan { white-space:pre }
		.shp0 { fill: #006ef5 } 
		.shp1 { fill: #ffffff } 
	</style>
	<g id="ELEMENTS">
		<g id="&lt;Group&gt;">
			<g id="&lt;Group&gt;">
				<g id="&lt;Group&gt;">
					<path id="&lt;Path&gt;" class="shp0" d="M70.79 35.89C70.79 55.43 54.95 71.27 35.4 71.27C15.86 71.27 0.02 55.43 0.02 35.89C0.02 16.35 15.86 0.51 35.4 0.51C54.95 0.51 70.79 16.35 70.79 35.89Z" />
					<g id="&lt;Group&gt;">
						<path id="&lt;Compound Path&gt;" fill-rule="evenodd" class="shp1" d="M19.41 46.63L19.41 18.06C19.41 14.87 21.99 12.29 25.18 12.29L45.63 12.29C48.82 12.29 51.4 14.87 51.4 18.06L51.4 46.63L19.41 46.63ZM33.67 17.61C33.67 18.57 34.45 19.34 35.4 19.34C36.36 19.34 37.13 18.57 37.13 17.61C37.13 16.66 36.36 15.88 35.4 15.88C34.45 15.88 33.67 16.66 33.67 17.61Z" />
						<path id="&lt;Compound Path&gt;" fill-rule="evenodd" class="shp1" d="M51.4 50.09L51.4 53.72C51.4 56.91 48.82 59.49 45.63 59.49L25.18 59.49C21.99 59.49 19.41 56.91 19.41 53.72L19.41 50.09L51.4 50.09ZM37.13 54.56C37.13 53.6 36.36 52.83 35.4 52.83C34.45 52.83 33.67 53.6 33.67 54.56C33.67 55.51 34.45 56.29 35.4 56.29C36.36 56.29 37.13 55.51 37.13 54.56Z" />
					</g>
				</g>
			</g>
		</g>
	</g>
</svg>