<svg version="1.2" baseProfile="tiny-ps" xmlns="http://www.w3.org/2000/svg" viewBox="0 0 72 71" width="72" height="71">
	<title>ELEMENTS</title>
	<style>
		tspan { white-space:pre }
		.shp0 { fill: #337fff } 
		.shp1 { fill: #ffffff } 
	</style>
	<g id="ELEMENTS">
		<g id="&lt;Group&gt;">
			<g id="&lt;Group&gt;">
				<g id="&lt;Group&gt;">
					<g id="&lt;Group&gt;">
						<path id="&lt;Path&gt;" class="shp0" d="M71.4 35.73C71.4 16.19 55.56 0.35 36.02 0.35C16.48 0.35 0.64 16.19 0.64 35.73C0.64 53.39 13.58 68.02 30.49 70.68L30.49 45.95L21.51 45.95L21.51 35.73L30.49 35.73L30.49 27.93C30.49 19.06 35.77 14.17 43.85 14.17C46.43 14.17 49.07 14.4 51.77 14.86L51.77 23.56L47.31 23.56C42.92 23.56 41.55 26.29 41.55 29.09L41.55 35.73L51.36 35.73L49.79 45.95L41.55 45.95L41.55 70.68C58.46 68.02 71.4 53.39 71.4 35.73Z" />
						<path id="&lt;Path&gt;" class="shp1" d="M49.79 45.95L51.36 35.73L41.55 35.73L41.55 29.09C41.55 26.29 42.92 23.56 47.31 23.56L51.77 23.56L51.77 14.86C49.07 14.4 46.43 14.17 43.85 14.17C35.77 14.17 30.49 19.06 30.49 27.93L30.49 35.73L21.51 35.73L21.51 45.95L30.49 45.95L30.49 70.68C32.29 70.96 34.14 71.11 36.02 71.11C37.9 71.11 39.75 70.96 41.55 70.68L41.55 45.95L49.79 45.95Z" />
					</g>
				</g>
			</g>
		</g>
	</g>
</svg>